Coordinates
version=1
nRows=13
nColumns=38
inDegrees=no

Units are S.I. units (second, meters, Newtons, ...)
If the header above contains a line with 'inDegrees', this indicates whether rotational values are in degrees (yes) or radians (no).

endheader
time	pelvis_tilt	pelvis_list	pelvis_rotation	pelvis_tx	pelvis_ty	pelvis_tz	hip_flexion_r	hip_adduction_r	hip_rotation_r	knee_angle_r	ankle_angle_r	subtalar_angle_r	mtp_angle_r	hip_flexion_l	hip_adduction_l	hip_rotation_l	knee_angle_l	ankle_angle_l	subtalar_angle_l	mtp_angle_l	lumbar_extension	lumbar_bending	lumbar_rotation	arm_flex_r	arm_add_r	arm_rot_r	elbow_flex_r	pro_sup_r	wrist_flex_r	wrist_dev_r	arm_flex_l	arm_add_l	arm_rot_l	elbow_flex_l	pro_sup_l	wrist_flex_l	wrist_dev_l
1.74	0.421702	1.38331	1.21396	0.560194	1.62515	1.03973	0.452944	-0.0519173	-0.0607966	0.937919	-0.165228	0	0	0.200439	-0.0267072	-0.294903	0.291701	-0.0322002	0	0	-0.0257402	0.0218513	0.0444658	-0.173254	-0.362813	0.405861	0.534856	0.802735	0	0	-0.108124	-0.478837	0.344313	0.65618	1.15576	0	0
1.75	0.432564	1.38004	1.2054	0.559035	1.63696	1.04041	0.470371	-0.0513142	-0.0689605	0.903845	-0.153028	0	0	0.185685	-0.0286467	-0.293387	0.281329	-0.0339531	0	0	-0.0241647	0.0256075	0.0422136	-0.173683	-0.364766	0.403836	0.537569	0.802088	0	0	-0.102221	-0.481512	0.344418	0.662703	1.16012	0	0
1.76	0.442981	1.37718	1.1981	0.557919	1.64876	1.04099	0.485792	-0.0510678	-0.0775293	0.866531	-0.143166	0	0	0.170413	-0.030479	-0.291918	0.27078	-0.0360785	0	0	-0.0231507	0.0291751	0.0394958	-0.173773	-0.366548	0.40264	0.539704	0.802196	0	0	-0.0962322	-0.483745	0.342327	0.669262	1.16478	0	0
1.77	0.452738	1.37457	1.19218	0.556799	1.66059	1.04143	0.499291	-0.0512792	-0.0867036	0.825722	-0.135716	0	0	0.155072	-0.0323088	-0.291337	0.260618	-0.0386167	0	0	-0.0223104	0.0326194	0.036028	-0.173687	-0.368103	0.401853	0.541373	0.802781	0	0	-0.0904109	-0.485771	0.339039	0.675883	1.16993	0	0
1.78	0.459754	1.37159	1.18959	0.555712	1.67245	1.04164	0.512008	-0.0520703	-0.0961666	0.781512	-0.130883	0	0	0.140538	-0.0340352	-0.2912	0.250974	-0.041353	0	0	-0.0207796	0.0355419	0.0318993	-0.173668	-0.369094	0.401159	0.542573	0.803459	0	0	-0.0851683	-0.487948	0.334556	0.683007	1.17554	0	0
1.79	0.462551	1.3682	1.19138	0.554709	1.68438	1.04157	0.524159	-0.0534081	-0.105429	0.733605	-0.128762	0	0	0.126809	-0.035277	-0.291471	0.241494	-0.0439124	0	0	-0.0183295	0.0376321	0.0274174	-0.173519	-0.369298	0.400573	0.542844	0.803775	0	0	-0.0808397	-0.490167	0.328205	0.690777	1.18119	0	0
1.8	0.46241	1.36484	1.19637	0.553794	1.69639	1.04131	0.533989	-0.0546731	-0.113698	0.681789	-0.128217	0	0	0.113498	-0.0361427	-0.292613	0.232607	-0.0466405	0	0	-0.0156293	0.0388781	0.022555	-0.172796	-0.368799	0.400834	0.541881	0.803908	0	0	-0.0770012	-0.492477	0.320624	0.698842	1.18701	0	0
1.81	0.488393	1.35425	1.17233	0.553031	1.70782	1.0418	0.563183	-0.0360939	-0.14772	0.686001	-0.115211	0	0	0.10623	-0.0454538	-0.290008	0.224368	-0.0503838	0	0	-0.0103031	0.0497177	0.0207012	-0.164275	-0.368137	0.408891	0.528775	0.803859	0	0	-0.0677749	-0.487524	0.312686	0.695488	1.19552	0	0
1.82	0.457495	1.3588	1.21134	0.552169	1.72063	1.04021	0.546242	-0.0563741	-0.126301	0.565252	-0.132073	0	0	0.0868922	-0.0369813	-0.293644	0.215877	-0.0506848	0	0	-0.0106413	0.0392256	0.0119836	-0.168337	-0.366711	0.408057	0.535719	0.803082	0	0	-0.0710874	-0.496358	0.299221	0.715922	1.20266	0	0
1.83	0.490033	1.34889	1.18121	0.551524	1.73228	1.04047	0.565148	-0.031932	-0.161795	0.552938	-0.122642	0	0	0.0788823	-0.0481074	-0.292477	0.209108	-0.0527228	0	0	-0.00707931	0.051155	0.0105552	-0.159301	-0.365407	0.415854	0.521318	0.801306	0	0	-0.0606822	-0.491314	0.293315	0.712122	1.20942	0	0
1.84	0.487257	1.34535	1.18982	0.550836	1.7446	1.03934	0.563632	-0.0293002	-0.164712	0.475545	-0.128955	0	0	0.0670708	-0.0493154	-0.294027	0.202987	-0.0534136	0	0	-0.0038918	0.0512028	0.00474487	-0.15598	-0.363474	0.421864	0.515643	0.796581	0	0	-0.0578032	-0.493246	0.283561	0.720247	1.21715	0	0
1.85	0.482744	1.3417	1.20023	0.550147	1.75704	1.03796	0.55963	-0.0262481	-0.164937	0.394444	-0.142194	0	0	0.0556926	-0.0502579	-0.295957	0.197481	-0.0540134	0	0	-0.000540195	0.0508046	-0.000701118	-0.153501	-0.361756	0.427793	0.511017	0.791984	0	0	-0.054478	-0.495369	0.275568	0.728163	1.22387	0	0
1.86	0.475849	1.3379	1.21314	0.54944	1.76964	1.03628	0.553622	-0.0230743	-0.162541	0.311218	-0.156518	0	0	0.0449248	-0.0507879	-0.298496	0.192853	-0.0540851	0	0	0.00366961	0.0499603	-0.00635589	-0.151855	-0.360249	0.433741	0.507147	0.788332	0	0	-0.0516005	-0.497549	0.268495	0.735897	1.22973	0	0
